<svg xmlns="http://www.w3.org/2000/svg" width="500" height="500" style="width:100%;height:100%;transform:translate3d(0,0,0);content-visibility:visible" viewBox="0 0 500 500"><defs><clipPath id="a"><path d="M0 0h500v500H0z"/></clipPath><clipPath id="c"><path d="M0 0h500v500H0z"/></clipPath><clipPath id="b"><path d="M0 0h500v500H0z"/></clipPath></defs><g clip-path="url(#a)"><g clip-path="url(#b)" style="display:block"><g class="primary design" style="display:none"><path fill="none" class="primary"/></g><g fill="#121331" class="primary design" style="display:block"><path d="M435.937 242.085a20.895 20.895 0 0 0-4.667-6.904l-83.099-83.098c-8.125-8.125-21.25-8.125-29.375 0s-8.125 21.251 0 29.376l47.709 47.708H187.546c-11.458 0-20.833 9.375-20.833 20.833 0 11.458 9.375 20.833 20.833 20.833h178.959l-47.918 47.917c-8.124 8.125-8.124 21.251 0 29.376 4.167 3.958 9.375 6.041 14.792 6.041s10.625-2.083 14.792-6.041l83.334-83.334c6.154-6.156 7.601-15.16 4.432-22.707z" class="primary"/><path d="M270.879 395.833H122.754c-10.208 0-18.542-8.749-18.542-19.583v-252.5c0-10.834 8.334-19.583 18.542-19.583h148.125c11.458 0 20.833-9.376 20.833-20.834S282.337 62.5 270.879 62.5H122.754c-33.126 0-60.208 27.5-60.208 61.25v252.5c0 33.75 27.082 61.25 60.208 61.25h148.125c11.458 0 20.833-9.375 20.833-20.833 0-11.458-9.375-20.834-20.833-20.834z" class="primary"/></g></g><g clip-path="url(#c)" style="display:none"><g class="primary design" style="display:none"><path fill="none" class="primary"/></g><g class="primary design" style="display:none"><path class="primary"/><path class="primary"/></g></g></g></svg>